<svg xmlns="http://www.w3.org/2000/svg" width="1050" height="680" viewBox="0 0 1050 680" role="img">
  <style>
    text { font-family: -apple-system, BlinkMacSystemFont, "Segoe UI", sans-serif; fill: #0f172a; }
    .title { font-size: 26px; font-weight: 700; }
    .subtitle { font-size: 15px; fill: #64748b; }
    .axis { font-size: 13px; fill: #64748b; }
    .label { font-size: 14px; fill: #0f172a; }
    .small { font-size: 12px; fill: #64748b; }
    .legend { font-size: 13px; fill: #0f172a; }
  </style>
  <rect width="100%" height="100%" fill="#f8fafc"/>
<text x="110" y="42" class="title">Output tokens vs skill effect</text>
<text x="110" y="68" class="subtitle">Only completion/output tokens are counted. More generated text did not translate into better candidate skills.</text>
<rect x="110" y="105" width="882" height="475" rx="10" fill="#ffffff" stroke="#e2e8f0"/>
<line x1="110.0" y1="105" x2="110.0" y2="580" stroke="#e2e8f0"/>
<text x="110.0" y="606" text-anchor="middle" class="axis">25k</text>
<line x1="275.4" y1="105" x2="275.4" y2="580" stroke="#e2e8f0"/>
<text x="275.4" y="606" text-anchor="middle" class="axis">28k</text>
<line x1="440.8" y1="105" x2="440.8" y2="580" stroke="#e2e8f0"/>
<text x="440.8" y="606" text-anchor="middle" class="axis">31k</text>
<line x1="606.1" y1="105" x2="606.1" y2="580" stroke="#e2e8f0"/>
<text x="606.1" y="606" text-anchor="middle" class="axis">34k</text>
<line x1="771.5" y1="105" x2="771.5" y2="580" stroke="#e2e8f0"/>
<text x="771.5" y="606" text-anchor="middle" class="axis">37k</text>
<line x1="936.9" y1="105" x2="936.9" y2="580" stroke="#e2e8f0"/>
<text x="936.9" y="606" text-anchor="middle" class="axis">40k</text>
<line x1="110" y1="557.4" x2="992" y2="557.4" stroke="#e2e8f0" stroke-width="1"/>
<text x="98" y="561.4" text-anchor="end" class="axis">-2.5 pp</text>
<line x1="110" y1="444.3" x2="992" y2="444.3" stroke="#334155" stroke-width="2"/>
<text x="98" y="448.3" text-anchor="end" class="axis">+0.0 pp</text>
<line x1="110" y1="331.2" x2="992" y2="331.2" stroke="#e2e8f0" stroke-width="1"/>
<text x="98" y="335.2" text-anchor="end" class="axis">+2.5 pp</text>
<line x1="110" y1="218.1" x2="992" y2="218.1" stroke="#e2e8f0" stroke-width="1"/>
<text x="98" y="222.1" text-anchor="end" class="axis">+5.0 pp</text>
<line x1="110" y1="105.0" x2="992" y2="105.0" stroke="#e2e8f0" stroke-width="1"/>
<text x="98" y="109.0" text-anchor="end" class="axis">+7.5 pp</text>
<circle cx="305.9" cy="127.6" r="8" fill="#16a34a" opacity="0.92" stroke="#ffffff" stroke-width="1.6"/>
<text x="305.9" y="115.6" text-anchor="middle" class="small">1</text>
<circle cx="397.8" cy="399.0" r="8" fill="#16a34a" opacity="0.92" stroke="#ffffff" stroke-width="1.6"/>
<text x="397.8" y="387.0" text-anchor="middle" class="small">2</text>
<circle cx="711.1" cy="466.9" r="6" fill="#dc2626" opacity="0.58" stroke="#ffffff" stroke-width="1.6"/>
<circle cx="458.7" cy="421.7" r="8" fill="#16a34a" opacity="0.92" stroke="#ffffff" stroke-width="1.6"/>
<text x="458.7" y="409.7" text-anchor="middle" class="small">4</text>
<circle cx="580.9" cy="489.5" r="6" fill="#dc2626" opacity="0.58" stroke="#ffffff" stroke-width="1.6"/>
<circle cx="843.8" cy="534.8" r="6" fill="#dc2626" opacity="0.58" stroke="#ffffff" stroke-width="1.6"/>
<text x="843.8" y="556.8" text-anchor="middle" class="small">6</text>
<circle cx="674.1" cy="489.5" r="6" fill="#dc2626" opacity="0.58" stroke="#ffffff" stroke-width="1.6"/>
<circle cx="641.3" cy="512.1" r="6" fill="#dc2626" opacity="0.58" stroke="#ffffff" stroke-width="1.6"/>
<circle cx="644.7" cy="421.7" r="8" fill="#16a34a" opacity="0.92" stroke="#ffffff" stroke-width="1.6"/>
<text x="644.7" y="409.7" text-anchor="middle" class="small">9</text>
<circle cx="842.5" cy="444.3" r="6" fill="#dc2626" opacity="0.58" stroke="#ffffff" stroke-width="1.6"/>
<text x="842.5" y="432.3" text-anchor="middle" class="small">10</text>
<circle cx="767.3" cy="444.3" r="6" fill="#dc2626" opacity="0.58" stroke="#ffffff" stroke-width="1.6"/>
<circle cx="774.9" cy="489.5" r="6" fill="#dc2626" opacity="0.58" stroke="#ffffff" stroke-width="1.6"/>
<circle cx="590.2" cy="534.8" r="6" fill="#dc2626" opacity="0.58" stroke="#ffffff" stroke-width="1.6"/>
<circle cx="487.7" cy="444.3" r="6" fill="#dc2626" opacity="0.58" stroke="#ffffff" stroke-width="1.6"/>
<circle cx="696.4" cy="534.8" r="6" fill="#dc2626" opacity="0.58" stroke="#ffffff" stroke-width="1.6"/>
<circle cx="403.4" cy="489.5" r="6" fill="#dc2626" opacity="0.58" stroke="#ffffff" stroke-width="1.6"/>
<circle cx="298.9" cy="489.5" r="6" fill="#dc2626" opacity="0.58" stroke="#ffffff" stroke-width="1.6"/>
<circle cx="454.7" cy="489.5" r="6" fill="#dc2626" opacity="0.58" stroke="#ffffff" stroke-width="1.6"/>
<circle cx="610.0" cy="512.1" r="6" fill="#dc2626" opacity="0.58" stroke="#ffffff" stroke-width="1.6"/>
<circle cx="150.4" cy="466.9" r="6" fill="#dc2626" opacity="0.58" stroke="#ffffff" stroke-width="1.6"/>
<circle cx="531.7" cy="512.1" r="6" fill="#dc2626" opacity="0.58" stroke="#ffffff" stroke-width="1.6"/>
<circle cx="754.4" cy="489.5" r="6" fill="#dc2626" opacity="0.58" stroke="#ffffff" stroke-width="1.6"/>
<circle cx="429.7" cy="512.1" r="6" fill="#dc2626" opacity="0.58" stroke="#ffffff" stroke-width="1.6"/>
<circle cx="639.3" cy="625.2" r="6" fill="#dc2626" opacity="0.58" stroke="#ffffff" stroke-width="1.6"/>
<circle cx="740.6" cy="489.5" r="6" fill="#dc2626" opacity="0.58" stroke="#ffffff" stroke-width="1.6"/>
<circle cx="465.9" cy="399.0" r="8" fill="#16a34a" opacity="0.92" stroke="#ffffff" stroke-width="1.6"/>
<text x="465.9" y="387.0" text-anchor="middle" class="small">26</text>
<circle cx="441.4" cy="534.8" r="6" fill="#dc2626" opacity="0.58" stroke="#ffffff" stroke-width="1.6"/>
<circle cx="315.9" cy="466.9" r="6" fill="#dc2626" opacity="0.58" stroke="#ffffff" stroke-width="1.6"/>
<circle cx="688.3" cy="489.5" r="6" fill="#dc2626" opacity="0.58" stroke="#ffffff" stroke-width="1.6"/>
<circle cx="620.3" cy="399.0" r="8" fill="#16a34a" opacity="0.92" stroke="#ffffff" stroke-width="1.6"/>
<text x="620.3" y="387.0" text-anchor="middle" class="small">30</text>
<circle cx="618.9" cy="489.5" r="6" fill="#dc2626" opacity="0.58" stroke="#ffffff" stroke-width="1.6"/>
<circle cx="699.1" cy="466.9" r="6" fill="#dc2626" opacity="0.58" stroke="#ffffff" stroke-width="1.6"/>
<circle cx="638.5" cy="489.5" r="6" fill="#dc2626" opacity="0.58" stroke="#ffffff" stroke-width="1.6"/>
<circle cx="401.4" cy="466.9" r="6" fill="#dc2626" opacity="0.58" stroke="#ffffff" stroke-width="1.6"/>
<circle cx="662.4" cy="534.8" r="6" fill="#dc2626" opacity="0.58" stroke="#ffffff" stroke-width="1.6"/>
<circle cx="718.2" cy="466.9" r="6" fill="#dc2626" opacity="0.58" stroke="#ffffff" stroke-width="1.6"/>
<circle cx="646.4" cy="399.0" r="8" fill="#16a34a" opacity="0.92" stroke="#ffffff" stroke-width="1.6"/>
<text x="646.4" y="387.0" text-anchor="middle" class="small">37</text>
<circle cx="838.1" cy="534.8" r="6" fill="#dc2626" opacity="0.58" stroke="#ffffff" stroke-width="1.6"/>
<circle cx="919.4" cy="489.5" r="6" fill="#dc2626" opacity="0.58" stroke="#ffffff" stroke-width="1.6"/>
<text x="919.4" y="511.5" text-anchor="middle" class="small">39</text>
<circle cx="755.0" cy="557.4" r="6" fill="#dc2626" opacity="0.58" stroke="#ffffff" stroke-width="1.6"/>
<text x="755.0" y="579.4" text-anchor="middle" class="small">40</text>
<line x1="505.7" y1="105" x2="505.7" y2="580" stroke="#16a34a" stroke-width="2" stroke-dasharray="6 6"/>
<line x1="615.8" y1="105" x2="615.8" y2="580" stroke="#dc2626" stroke-width="2" stroke-dasharray="6 6"/>
<text x="505.7" y="135" text-anchor="middle" class="small">accept mean 32.2k</text>
<text x="615.8" y="155" text-anchor="middle" class="small">reject mean 34.2k</text>
<rect x="692" y="448" width="270" height="96" rx="10" fill="#f8fafc" stroke="#e2e8f0"/>
<text x="708" y="474" class="label">Correlation r = -0.34</text>
<text x="708" y="498" class="small">x: output tokens only</text>
<text x="708" y="520" class="small">y: candidate hard minus prior current</text>
<text x="551.0" y="644" text-anchor="middle" class="label">completion tokens per step (prompt/input tokens excluded)</text>
<text x="30" y="342.5" transform="rotate(-90 30,342.5)" text-anchor="middle" class="label">candidate effect on validation hard</text>
<circle cx="770" cy="614" r="6" fill="#16a34a" opacity="0.92"/>
<text x="784" y="619" class="legend">accepted</text>
<circle cx="870" cy="614" r="6" fill="#dc2626" opacity="0.58"/>
<text x="884" y="619" class="legend">rejected</text>
</svg>
