<svg xmlns="http://www.w3.org/2000/svg" width="900" height="650" viewBox="0 0 900 650" role="img">
  <style>
    text { font-family: -apple-system, BlinkMacSystemFont, "Segoe UI", sans-serif; fill: #0f172a; }
    .title { font-size: 26px; font-weight: 700; }
    .subtitle { font-size: 15px; fill: #64748b; }
    .axis { font-size: 13px; fill: #64748b; }
    .label { font-size: 14px; fill: #0f172a; }
    .small { font-size: 12px; fill: #64748b; }
    .legend { font-size: 13px; fill: #0f172a; }
  </style>
  <rect width="100%" height="100%" fill="#f8fafc"/>
<text x="92" y="42" class="title">Train-batch score vs validation score</text>
<text x="92" y="68" class="subtitle">Pearson r = 0.20: batch rollout accuracy is only a weak predictor of validation gain.</text>
<rect x="92" y="100" width="758" height="462" rx="10" fill="#ffffff" stroke="#e2e8f0"/>
<line x1="92.0" y1="100" x2="92.0" y2="562" stroke="#e2e8f0"/>
<text x="92.0" y="588" text-anchor="middle" class="axis">0.80</text>
<line x1="344.7" y1="100" x2="344.7" y2="562" stroke="#e2e8f0"/>
<text x="344.7" y="588" text-anchor="middle" class="axis">0.85</text>
<line x1="597.3" y1="100" x2="597.3" y2="562" stroke="#e2e8f0"/>
<text x="597.3" y="588" text-anchor="middle" class="axis">0.90</text>
<line x1="850.0" y1="100" x2="850.0" y2="562" stroke="#e2e8f0"/>
<text x="850.0" y="588" text-anchor="middle" class="axis">0.95</text>
<line x1="92" y1="562.0" x2="850" y2="562.0" stroke="#e2e8f0"/>
<text x="80" y="566.0" text-anchor="end" class="axis">0.80</text>
<line x1="92" y1="446.5" x2="850" y2="446.5" stroke="#e2e8f0"/>
<text x="80" y="450.5" text-anchor="end" class="axis">0.82</text>
<line x1="92" y1="331.0" x2="850" y2="331.0" stroke="#e2e8f0"/>
<text x="80" y="335.0" text-anchor="end" class="axis">0.84</text>
<line x1="92" y1="215.5" x2="850" y2="215.5" stroke="#e2e8f0"/>
<text x="80" y="219.5" text-anchor="end" class="axis">0.86</text>
<line x1="92" y1="100.0" x2="850" y2="100.0" stroke="#e2e8f0"/>
<text x="80" y="104.0" text-anchor="end" class="axis">0.88</text>
<text x="471.0" y="620" text-anchor="middle" class="label">train batch hard</text>
<text x="28" y="331.0" transform="rotate(-90 28,331.0)" text-anchor="middle" class="label">validation hard</text>
<circle cx="344.7" cy="417.6" r="8" fill="#16a34a" opacity="0.9" stroke="#ffffff" stroke-width="1.5"/>
<text x="344.7" y="404.6" text-anchor="middle" class="small">1</text>
<circle cx="723.7" cy="359.9" r="8" fill="#16a34a" opacity="0.9" stroke="#ffffff" stroke-width="1.5"/>
<text x="723.7" y="346.9" text-anchor="middle" class="small">2</text>
<circle cx="471.0" cy="388.8" r="6" fill="#dc2626" opacity="0.55" stroke="#ffffff" stroke-width="1.5"/>
<circle cx="723.7" cy="331.0" r="8" fill="#16a34a" opacity="0.9" stroke="#ffffff" stroke-width="1.5"/>
<text x="723.7" y="318.0" text-anchor="middle" class="small">4</text>
<circle cx="-34.3" cy="388.8" r="6" fill="#dc2626" opacity="0.55" stroke="#ffffff" stroke-width="1.5"/>
<circle cx="218.3" cy="446.5" r="6" fill="#dc2626" opacity="0.55" stroke="#ffffff" stroke-width="1.5"/>
<circle cx="218.3" cy="388.8" r="6" fill="#dc2626" opacity="0.55" stroke="#ffffff" stroke-width="1.5"/>
<circle cx="597.3" cy="417.6" r="6" fill="#dc2626" opacity="0.55" stroke="#ffffff" stroke-width="1.5"/>
<circle cx="344.7" cy="302.1" r="8" fill="#16a34a" opacity="0.9" stroke="#ffffff" stroke-width="1.5"/>
<text x="344.7" y="289.1" text-anchor="middle" class="small">9</text>
<circle cx="-34.3" cy="302.1" r="6" fill="#dc2626" opacity="0.55" stroke="#ffffff" stroke-width="1.5"/>
<circle cx="218.3" cy="302.1" r="6" fill="#dc2626" opacity="0.55" stroke="#ffffff" stroke-width="1.5"/>
<circle cx="471.0" cy="359.9" r="6" fill="#dc2626" opacity="0.55" stroke="#ffffff" stroke-width="1.5"/>
<circle cx="723.7" cy="417.6" r="6" fill="#dc2626" opacity="0.55" stroke="#ffffff" stroke-width="1.5"/>
<circle cx="850.0" cy="302.1" r="6" fill="#dc2626" opacity="0.55" stroke="#ffffff" stroke-width="1.5"/>
<circle cx="218.3" cy="417.6" r="6" fill="#dc2626" opacity="0.55" stroke="#ffffff" stroke-width="1.5"/>
<circle cx="471.0" cy="359.9" r="6" fill="#dc2626" opacity="0.55" stroke="#ffffff" stroke-width="1.5"/>
<circle cx="92.0" cy="359.9" r="6" fill="#dc2626" opacity="0.55" stroke="#ffffff" stroke-width="1.5"/>
<circle cx="92.0" cy="359.9" r="6" fill="#dc2626" opacity="0.55" stroke="#ffffff" stroke-width="1.5"/>
<circle cx="218.3" cy="388.8" r="6" fill="#dc2626" opacity="0.55" stroke="#ffffff" stroke-width="1.5"/>
<circle cx="723.7" cy="331.0" r="6" fill="#dc2626" opacity="0.55" stroke="#ffffff" stroke-width="1.5"/>
<circle cx="850.0" cy="388.8" r="6" fill="#dc2626" opacity="0.55" stroke="#ffffff" stroke-width="1.5"/>
<circle cx="218.3" cy="359.9" r="6" fill="#dc2626" opacity="0.55" stroke="#ffffff" stroke-width="1.5"/>
<circle cx="471.0" cy="388.8" r="6" fill="#dc2626" opacity="0.55" stroke="#ffffff" stroke-width="1.5"/>
<circle cx="218.3" cy="533.1" r="6" fill="#dc2626" opacity="0.55" stroke="#ffffff" stroke-width="1.5"/>
<circle cx="471.0" cy="359.9" r="6" fill="#dc2626" opacity="0.55" stroke="#ffffff" stroke-width="1.5"/>
<circle cx="597.3" cy="244.4" r="8" fill="#16a34a" opacity="0.9" stroke="#ffffff" stroke-width="1.5"/>
<text x="597.3" y="231.4" text-anchor="middle" class="small">26</text>
<circle cx="976.3" cy="359.9" r="6" fill="#dc2626" opacity="0.55" stroke="#ffffff" stroke-width="1.5"/>
<circle cx="344.7" cy="273.3" r="6" fill="#dc2626" opacity="0.55" stroke="#ffffff" stroke-width="1.5"/>
<circle cx="344.7" cy="302.1" r="6" fill="#dc2626" opacity="0.55" stroke="#ffffff" stroke-width="1.5"/>
<circle cx="344.7" cy="186.6" r="8" fill="#16a34a" opacity="0.9" stroke="#ffffff" stroke-width="1.5"/>
<text x="344.7" y="173.6" text-anchor="middle" class="small">30</text>
<circle cx="976.3" cy="244.4" r="6" fill="#dc2626" opacity="0.55" stroke="#ffffff" stroke-width="1.5"/>
<circle cx="92.0" cy="215.5" r="6" fill="#dc2626" opacity="0.55" stroke="#ffffff" stroke-width="1.5"/>
<circle cx="471.0" cy="244.4" r="6" fill="#dc2626" opacity="0.55" stroke="#ffffff" stroke-width="1.5"/>
<circle cx="723.7" cy="215.5" r="6" fill="#dc2626" opacity="0.55" stroke="#ffffff" stroke-width="1.5"/>
<circle cx="471.0" cy="302.1" r="6" fill="#dc2626" opacity="0.55" stroke="#ffffff" stroke-width="1.5"/>
<circle cx="723.7" cy="215.5" r="6" fill="#dc2626" opacity="0.55" stroke="#ffffff" stroke-width="1.5"/>
<circle cx="344.7" cy="128.9" r="8" fill="#16a34a" opacity="0.9" stroke="#ffffff" stroke-width="1.5"/>
<text x="344.7" y="115.9" text-anchor="middle" class="small">37</text>
<circle cx="218.3" cy="244.4" r="6" fill="#dc2626" opacity="0.55" stroke="#ffffff" stroke-width="1.5"/>
<circle cx="850.0" cy="186.6" r="6" fill="#dc2626" opacity="0.55" stroke="#ffffff" stroke-width="1.5"/>
<circle cx="723.7" cy="273.3" r="6" fill="#dc2626" opacity="0.55" stroke="#ffffff" stroke-width="1.5"/>
<circle cx="632" cy="594" r="6" fill="#16a34a" opacity="0.9"/>
<text x="646" y="599" class="legend">accepted</text>
<circle cx="737" cy="594" r="6" fill="#dc2626" opacity="0.55"/>
<text x="751" y="599" class="legend">rejected</text>
</svg>
