<svg xmlns="http://www.w3.org/2000/svg" width="1180" height="650" viewBox="0 0 1180 650" role="img">
  <style>
    text { font-family: -apple-system, BlinkMacSystemFont, "Segoe UI", sans-serif; fill: #0f172a; }
    .title { font-size: 26px; font-weight: 700; }
    .subtitle { font-size: 15px; fill: #64748b; }
    .axis { font-size: 13px; fill: #64748b; }
    .label { font-size: 14px; fill: #0f172a; }
    .small { font-size: 12px; fill: #64748b; }
    .legend { font-size: 13px; fill: #0f172a; }
  </style>
  <rect width="100%" height="100%" fill="#f8fafc"/>
<text x="90" y="44" class="title">Selection score over training</text>
<text x="90" y="70" class="subtitle">Accepted steps move the current/best skill; rejected candidates can still be far above the initial baseline.</text>
<rect x="90" y="105" width="1050" height="453" rx="10" fill="#ffffff" stroke="#e2e8f0"/>
<text x="221.2" y="615" text-anchor="middle" class="small">Epoch 1</text>
<rect x="352.5" y="105" width="262.5" height="453" fill="#eef6ff" opacity="0.65"/>
<text x="483.8" y="615" text-anchor="middle" class="small">Epoch 2</text>
<text x="746.2" y="615" text-anchor="middle" class="small">Epoch 3</text>
<rect x="877.5" y="105" width="262.5" height="453" fill="#eef6ff" opacity="0.65"/>
<text x="1008.8" y="615" text-anchor="middle" class="small">Epoch 4</text>
<line x1="90" y1="525.6" x2="1140" y2="525.6" stroke="#e2e8f0" stroke-width="1"/>
<text x="76" y="529.6" text-anchor="end" class="axis">0.750</text>
<line x1="90" y1="363.9" x2="1140" y2="363.9" stroke="#e2e8f0" stroke-width="1"/>
<text x="76" y="367.9" text-anchor="end" class="axis">0.800</text>
<line x1="90" y1="283.0" x2="1140" y2="283.0" stroke="#e2e8f0" stroke-width="1"/>
<text x="76" y="287.0" text-anchor="end" class="axis">0.825</text>
<line x1="90" y1="202.1" x2="1140" y2="202.1" stroke="#e2e8f0" stroke-width="1"/>
<text x="76" y="206.1" text-anchor="end" class="axis">0.850</text>
<line x1="90" y1="121.2" x2="1140" y2="121.2" stroke="#e2e8f0" stroke-width="1"/>
<text x="76" y="125.2" text-anchor="end" class="axis">0.875</text>
<line x1="90.0" y1="558" x2="90.0" y2="563" stroke="#e2e8f0"/>
<text x="90.0" y="582" text-anchor="middle" class="axis">1</text>
<line x1="224.6" y1="558" x2="224.6" y2="563" stroke="#e2e8f0"/>
<text x="224.6" y="582" text-anchor="middle" class="axis">6</text>
<line x1="359.2" y1="558" x2="359.2" y2="563" stroke="#e2e8f0"/>
<text x="359.2" y="582" text-anchor="middle" class="axis">11</text>
<line x1="493.8" y1="558" x2="493.8" y2="563" stroke="#e2e8f0"/>
<text x="493.8" y="582" text-anchor="middle" class="axis">16</text>
<line x1="628.5" y1="558" x2="628.5" y2="563" stroke="#e2e8f0"/>
<text x="628.5" y="582" text-anchor="middle" class="axis">21</text>
<line x1="763.1" y1="558" x2="763.1" y2="563" stroke="#e2e8f0"/>
<text x="763.1" y="582" text-anchor="middle" class="axis">26</text>
<line x1="897.7" y1="558" x2="897.7" y2="563" stroke="#e2e8f0"/>
<text x="897.7" y="582" text-anchor="middle" class="axis">31</text>
<line x1="1032.3" y1="558" x2="1032.3" y2="563" stroke="#e2e8f0"/>
<text x="1032.3" y="582" text-anchor="middle" class="axis">36</text>
<line x1="90" y1="509.5" x2="1140" y2="509.5" stroke="#334155" stroke-width="2" stroke-dasharray="7 7"/>
<text x="1132" y="501.5" text-anchor="end" class="small">baseline 0.755</text>
<polyline points="90.0,283.0 116.9,250.6 143.8,266.8 170.8,234.4 197.7,266.8 224.6,299.1 251.5,266.8 278.5,283.0 305.4,218.3 332.3,218.3 359.2,218.3 386.2,250.6 413.1,283.0 440.0,218.3 466.9,283.0 493.8,250.6 520.8,250.6 547.7,250.6 574.6,266.8 601.5,234.4 628.5,266.8 655.4,250.6 682.3,266.8 709.2,347.7 736.2,250.6 763.1,185.9 790.0,250.6 816.9,202.1 843.8,218.3 870.8,153.5 897.7,185.9 924.6,169.7 951.5,185.9 978.5,169.7 1005.4,218.3 1032.3,169.7 1059.2,121.2 1086.2,185.9 1113.1,153.5 1140.0,202.1" fill="none" stroke="#f97316" stroke-width="2.4" stroke-linecap="round" stroke-linejoin="round"/>
<polyline points="90.0,283.0 116.9,250.6 143.8,250.6 170.8,234.4 197.7,234.4 224.6,234.4 251.5,234.4 278.5,234.4 305.4,218.3 332.3,218.3 359.2,218.3 386.2,218.3 413.1,218.3 440.0,218.3 466.9,218.3 493.8,218.3 520.8,218.3 547.7,218.3 574.6,218.3 601.5,218.3 628.5,218.3 655.4,218.3 682.3,218.3 709.2,218.3 736.2,218.3 763.1,185.9 790.0,185.9 816.9,185.9 843.8,185.9 870.8,153.5 897.7,153.5 924.6,153.5 951.5,153.5 978.5,153.5 1005.4,153.5 1032.3,153.5 1059.2,121.2 1086.2,121.2 1113.1,121.2 1140.0,121.2" fill="none" stroke="#2563eb" stroke-width="3.0" stroke-linecap="round" stroke-linejoin="round"/>
<polyline points="90.0,283.0 116.9,250.6 143.8,250.6 170.8,234.4 197.7,234.4 224.6,234.4 251.5,234.4 278.5,234.4 305.4,218.3 332.3,218.3 359.2,218.3 386.2,218.3 413.1,218.3 440.0,218.3 466.9,218.3 493.8,218.3 520.8,218.3 547.7,218.3 574.6,218.3 601.5,218.3 628.5,218.3 655.4,218.3 682.3,218.3 709.2,218.3 736.2,218.3 763.1,185.9 790.0,185.9 816.9,185.9 843.8,185.9 870.8,153.5 897.7,153.5 924.6,153.5 951.5,153.5 978.5,153.5 1005.4,153.5 1032.3,153.5 1059.2,121.2 1086.2,121.2 1113.1,121.2 1140.0,121.2" fill="none" stroke="#16a34a" stroke-width="3.0" stroke-linecap="round" stroke-linejoin="round"/>
<circle cx="90.0" cy="283.0" r="6" fill="#16a34a" stroke="#ffffff" stroke-width="2"/>
<text x="90.0" y="271.0" text-anchor="middle" class="small">1</text>
<circle cx="116.9" cy="250.6" r="6" fill="#16a34a" stroke="#ffffff" stroke-width="2"/>
<text x="116.9" y="238.6" text-anchor="middle" class="small">2</text>
<circle cx="143.8" cy="266.8" r="4" fill="#ffffff" stroke="#dc2626" stroke-width="1.7"/>
<circle cx="170.8" cy="234.4" r="6" fill="#16a34a" stroke="#ffffff" stroke-width="2"/>
<text x="170.8" y="222.4" text-anchor="middle" class="small">4</text>
<circle cx="197.7" cy="266.8" r="4" fill="#ffffff" stroke="#dc2626" stroke-width="1.7"/>
<circle cx="224.6" cy="299.1" r="4" fill="#ffffff" stroke="#dc2626" stroke-width="1.7"/>
<circle cx="251.5" cy="266.8" r="4" fill="#ffffff" stroke="#dc2626" stroke-width="1.7"/>
<circle cx="278.5" cy="283.0" r="4" fill="#ffffff" stroke="#dc2626" stroke-width="1.7"/>
<circle cx="305.4" cy="218.3" r="6" fill="#16a34a" stroke="#ffffff" stroke-width="2"/>
<text x="305.4" y="206.3" text-anchor="middle" class="small">9</text>
<circle cx="332.3" cy="218.3" r="4" fill="#ffffff" stroke="#dc2626" stroke-width="1.7"/>
<circle cx="359.2" cy="218.3" r="4" fill="#ffffff" stroke="#dc2626" stroke-width="1.7"/>
<circle cx="386.2" cy="250.6" r="4" fill="#ffffff" stroke="#dc2626" stroke-width="1.7"/>
<circle cx="413.1" cy="283.0" r="4" fill="#ffffff" stroke="#dc2626" stroke-width="1.7"/>
<circle cx="440.0" cy="218.3" r="4" fill="#ffffff" stroke="#dc2626" stroke-width="1.7"/>
<circle cx="466.9" cy="283.0" r="4" fill="#ffffff" stroke="#dc2626" stroke-width="1.7"/>
<circle cx="493.8" cy="250.6" r="4" fill="#ffffff" stroke="#dc2626" stroke-width="1.7"/>
<circle cx="520.8" cy="250.6" r="4" fill="#ffffff" stroke="#dc2626" stroke-width="1.7"/>
<circle cx="547.7" cy="250.6" r="4" fill="#ffffff" stroke="#dc2626" stroke-width="1.7"/>
<circle cx="574.6" cy="266.8" r="4" fill="#ffffff" stroke="#dc2626" stroke-width="1.7"/>
<circle cx="601.5" cy="234.4" r="4" fill="#ffffff" stroke="#dc2626" stroke-width="1.7"/>
<circle cx="628.5" cy="266.8" r="4" fill="#ffffff" stroke="#dc2626" stroke-width="1.7"/>
<circle cx="655.4" cy="250.6" r="4" fill="#ffffff" stroke="#dc2626" stroke-width="1.7"/>
<circle cx="682.3" cy="266.8" r="4" fill="#ffffff" stroke="#dc2626" stroke-width="1.7"/>
<circle cx="709.2" cy="347.7" r="4" fill="#ffffff" stroke="#dc2626" stroke-width="1.7"/>
<circle cx="736.2" cy="250.6" r="4" fill="#ffffff" stroke="#dc2626" stroke-width="1.7"/>
<circle cx="763.1" cy="185.9" r="6" fill="#16a34a" stroke="#ffffff" stroke-width="2"/>
<text x="763.1" y="173.9" text-anchor="middle" class="small">26</text>
<circle cx="790.0" cy="250.6" r="4" fill="#ffffff" stroke="#dc2626" stroke-width="1.7"/>
<circle cx="816.9" cy="202.1" r="4" fill="#ffffff" stroke="#dc2626" stroke-width="1.7"/>
<circle cx="843.8" cy="218.3" r="4" fill="#ffffff" stroke="#dc2626" stroke-width="1.7"/>
<circle cx="870.8" cy="153.5" r="6" fill="#16a34a" stroke="#ffffff" stroke-width="2"/>
<text x="870.8" y="141.5" text-anchor="middle" class="small">30</text>
<circle cx="897.7" cy="185.9" r="4" fill="#ffffff" stroke="#dc2626" stroke-width="1.7"/>
<circle cx="924.6" cy="169.7" r="4" fill="#ffffff" stroke="#dc2626" stroke-width="1.7"/>
<circle cx="951.5" cy="185.9" r="4" fill="#ffffff" stroke="#dc2626" stroke-width="1.7"/>
<circle cx="978.5" cy="169.7" r="4" fill="#ffffff" stroke="#dc2626" stroke-width="1.7"/>
<circle cx="1005.4" cy="218.3" r="4" fill="#ffffff" stroke="#dc2626" stroke-width="1.7"/>
<circle cx="1032.3" cy="169.7" r="4" fill="#ffffff" stroke="#dc2626" stroke-width="1.7"/>
<circle cx="1059.2" cy="121.2" r="6" fill="#16a34a" stroke="#ffffff" stroke-width="2"/>
<text x="1059.2" y="109.2" text-anchor="middle" class="small">37</text>
<circle cx="1086.2" cy="185.9" r="4" fill="#ffffff" stroke="#dc2626" stroke-width="1.7"/>
<circle cx="1113.1" cy="153.5" r="4" fill="#ffffff" stroke="#dc2626" stroke-width="1.7"/>
<circle cx="1140.0" cy="202.1" r="4" fill="#ffffff" stroke="#dc2626" stroke-width="1.7"/>
<line x1="325" y1="590" x2="353" y2="590" stroke="#f97316" stroke-width="3"/>
<text x="361" y="595" class="legend">candidate</text>
<line x1="500" y1="590" x2="528" y2="590" stroke="#2563eb" stroke-width="3"/>
<text x="536" y="595" class="legend">current</text>
<line x1="675" y1="590" x2="703" y2="590" stroke="#16a34a" stroke-width="3"/>
<text x="711" y="595" class="legend">best</text>
<line x1="850" y1="590" x2="878" y2="590" stroke="#334155" stroke-width="3" stroke-dasharray="7 7"/>
<text x="886" y="595" class="legend">initial baseline</text>
</svg>
