<svg xmlns="http://www.w3.org/2000/svg" width="1100" height="610" viewBox="0 0 1100 610" role="img">
  <style>
    text { font-family: -apple-system, BlinkMacSystemFont, "Segoe UI", sans-serif; fill: #0f172a; }
    .title { font-size: 26px; font-weight: 700; }
    .subtitle { font-size: 15px; fill: #64748b; }
    .axis { font-size: 13px; fill: #64748b; }
    .label { font-size: 14px; fill: #0f172a; }
    .small { font-size: 12px; fill: #64748b; }
    .legend { font-size: 13px; fill: #0f172a; }
  </style>
  <rect width="100%" height="100%" fill="#f8fafc"/>
<text x="70" y="42" class="title">Token usage by pipeline stage</text>
<text x="70" y="68" class="subtitle">Total 44,115,918 tokens across 13,069 calls. Rollout dominates both tokens and calls.</text>
<rect x="60" y="92" width="980" height="465" rx="12" fill="#ffffff" stroke="#e2e8f0"/>
<text x="232" y="134" text-anchor="end" class="label">rollout</text>
<rect x="250" y="110" width="730" height="34" rx="8" fill="#e5e7eb"/>
<rect x="250" y="110" width="730.0" height="34" rx="8" fill="#2563eb"/>
<text x="860.0" y="133" class="label">90.5% tokens, 97.3% calls</text>
<text x="250" y="162" class="small">39,915,653 tokens; 12,718 calls</text>
<text x="232" y="200" text-anchor="end" class="label">analyst</text>
<rect x="250" y="176" width="730" height="34" rx="8" fill="#e5e7eb"/>
<rect x="250" y="176" width="67.1" height="34" rx="8" fill="#f97316"/>
<text x="329.1" y="199" class="label">8.3% tokens, 1.8% calls</text>
<text x="250" y="228" class="small">3,668,438 tokens; 237 calls</text>
<text x="232" y="266" text-anchor="end" class="label">merge</text>
<rect x="250" y="242" width="730" height="34" rx="8" fill="#e5e7eb"/>
<rect x="250" y="242" width="8.0" height="34" rx="8" fill="#7c3aed"/>
<text x="270.0" y="265" class="label">0.8% tokens, 0.6% calls</text>
<text x="250" y="294" class="small">342,310 tokens; 72 calls</text>
<text x="232" y="332" text-anchor="end" class="label">ranking</text>
<rect x="250" y="308" width="730" height="34" rx="8" fill="#e5e7eb"/>
<rect x="250" y="308" width="8.0" height="34" rx="8" fill="#0f766e"/>
<text x="270.0" y="331" class="label">0.3% tokens, 0.3% calls</text>
<text x="250" y="360" class="small">144,919 tokens; 36 calls</text>
<text x="232" y="398" text-anchor="end" class="label">slow_update</text>
<rect x="250" y="374" width="730" height="34" rx="8" fill="#e5e7eb"/>
<rect x="250" y="374" width="8.0" height="34" rx="8" fill="#d97706"/>
<text x="270.0" y="397" class="label">0.1% tokens, 0.0% calls</text>
<text x="250" y="426" class="small">25,400 tokens; 3 calls</text>
<text x="232" y="464" text-anchor="end" class="label">meta_skill</text>
<rect x="250" y="440" width="730" height="34" rx="8" fill="#e5e7eb"/>
<rect x="250" y="440" width="8.0" height="34" rx="8" fill="#16a34a"/>
<text x="270.0" y="463" class="label">0.0% tokens, 0.0% calls</text>
<text x="250" y="492" class="small">19,198 tokens; 3 calls</text>
</svg>
